# xmcd
#
# Track frame offsets:
#	182
#	11237
#	24942
#	34832
#	48895
#	60710
#	73425
#	84577
#	100255
#	110610
#	121427
#	132217
#	145607
#	155580
#
# Disc length: 2201 seconds
#
# Revision: 0
# Processed by: cddbd v1.5.1PL0 Copyright (c) Steve Scherf et al.
# Submitted via: dBpowerAMP V4.0
#
DISCID=c108970e
DTITLE=Crazy Cavan and The Rythm Rockers - Rough, Tough and Ready
DYEAR=1990
DGENRE=Teddyboy
TTITLE0=Rough, Tough and Ready
TTITLE1=Spare Time Hobby
TTITLE2=Howlin´ In The Dark
TTITLE3=My Idea Of Heaven
TTITLE4=Teenage Dream
TTITLE5=Hard Walkin´
TTITLE6=Hello Josephine
TTITLE7=Fantasy
TTITLE8=Good Feelin´
TTITLE9=Oh Babe
TTITLE10=Four Star Hotel Blues
TTITLE11=Sunshine
TTITLE12=Stop Jumpin´ The Gun
TTITLE13=Sideways Shuffle
EXTD=
EXTT0=
EXTT1=
EXTT2=
EXTT3=
EXTT4=
EXTT5=
EXTT6=
EXTT7=
EXTT8=
EXTT9=
EXTT10=
EXTT11=
EXTT12=
EXTT13=
PLAYORDER=
